<svg xmlns="http://www.w3.org/2000/svg" viewBox="0 0 148 30">
   <path
      d="M47.6 24.4c-.7 0-1.5-.2-2.1-.6-.5-.4-.8-1-.8-1.7V10.3c0-.2.1-.3.2-.3h.1 2.1c.2 0 .3.2.3.3v10.8c0 .5.2.7.7.7.2 0 .3 0 .6-.1.2 0 .4.1.4.3l.2 1.6c0 .2-.1.3-.2.4H49c-.4.3-.9.4-1.4.4zM59.4 23c-2.2 1.8-5.3 1.8-7.6 0-1.9-2-1.9-5.2 0-7.2 2.2-1.8 5.3-1.8 7.6 0 2 2.1 2 5.2 0 7.2h0zm-5.5-1.7a2.74 2.74 0 0 0 3.6 0c.9-1.1.9-2.7 0-3.7a2.74 2.74 0 0 0-3.6 0c-.9 1.1-.9 2.7 0 3.7zm18.6-6.5c.2 0 .3.2.3.3v9.1c.1 1.2-.5 2.4-1.4 3.2-1 .9-2.3 1.3-3.7 1.2-1.2.1-2.4-.2-3.4-.9a3.94 3.94 0 0 1-1.7-2.5c0-.2 0-.3.3-.3H65c.2 0 .3.1.4.3.2.4.4.7.7.9.4.2.9.3 1.4.3.6 0 1.2-.2 1.7-.6.4-.4.6-1 .6-1.6v-.8c-.7.6-1.7.8-2.6.8-1.2.3-2.4-.2-3.4-1.2-1.9-2-1.9-5.1 0-7.1 1-.9 2.2-1.4 3.6-1.3 1 0 1.9.2 2.7.9v-.2c0-.2.1-.3.2-.3h.1l2.1-.2zm-4.9 7.3a2.19 2.19 0 0 0 1.7-.7 3.31 3.31 0 0 0 0-3.8c-.4-.5-1.1-.7-1.7-.7-.7 0-1.3.2-1.7.7-.5.5-.7 1.2-.7 1.9s.2 1.3.7 1.9c.4.4 1.1.8 1.7.7zm16.1.9c-2.2 1.8-5.3 1.8-7.6 0-1.9-2-1.9-5.2 0-7.2 2.2-1.8 5.3-1.8 7.6 0 1.9 2.1 1.9 5.2 0 7.2h0zm-5.6-1.7c.5.5 1.2.7 1.8.7.7 0 1.3-.2 1.8-.7.9-1.1.9-2.7 0-3.7-.5-.5-1.2-.7-1.8-.7-.7 0-1.3.2-1.8.7a2.87 2.87 0 0 0 0 3.7zm11.6-8.6c-.7.6-1.7.6-2.4 0-.6-.6-.7-1.6-.1-2.2 0 0 0-.1.1-.1.7-.6 1.7-.6 2.4 0 .6.6.6 1.6 0 2.3zm.3 11.7c-.7 0-1.5-.2-2.1-.6-.5-.4-.8-1-.7-1.7v-6.9c0-.2.1-.3.2-.3h.1 2.1c.2 0 .3.2.3.3v6c0 .5.2.7.7.7.2 0 .4 0 .6-.1.2 0 .4.1.4.3l.2 1.6c0 .2-.1.3-.2.4h-.1c-.6.2-1.1.3-1.5.3zm9.4-9.9c1.3-.1 2.7.4 3.6 1.3 1.8 2 1.8 5.1 0 7.1-1 .9-2.2 1.4-3.6 1.4-.9 0-1.8-.2-2.7-.8v4.6c0 .2-.2.3-.3.3h-2.1c-.2 0-.3-.1-.3-.2v-.1-10.4c.1-.3-.2-.7-.6-.7h-.2-.4c-.2 0-.4-.1-.4-.3v-1.5c0-.2.1-.3.2-.4.4-.2.9-.2 1.3-.2.9-.1 1.8.4 2.2 1.2 1.1-.8 2.2-1.3 3.3-1.3zm-1.9 6.8c.9 1 2.4 1 3.4.1l.1-.1c.5-.5.7-1.2.7-1.9s-.2-1.4-.7-1.9c-.9-1-2.4-1-3.4-.1l-.1.1c-.5.5-.7 1.2-.7 1.9 0 .8.2 1.4.7 1.9zm12.9 3.1c-1.2.1-2.2-.2-3.2-.7-.8-.5-1.3-1.3-1.5-2.2 0-.2.1-.4.3-.4h1.8c.2 0 .3.1.4.2.2.7.9 1 2.1 1 .4 0 .7-.1 1.1-.2.2-.1.4-.3.4-.6s-.2-.6-.6-.7c-.5-.2-1-.2-1.5-.3L108 20c-.6-.2-1.1-.4-1.5-.8-.9-1.2-.7-2.9.4-3.8.1 0 .1-.1.2-.1.9-.6 2-.8 3.1-.8 1 0 2.1.2 3 .7.7.4 1.2 1.2 1.4 2 0 .2-.1.4-.3.4h-1.8c-.2 0-.3-.1-.4-.2-.1-.3-.3-.6-.7-.7-.3-.2-.7-.2-1.1-.2s-.7.1-1.1.2c-.2.1-.4.3-.4.6s.2.7.6.7c.5.2 1 .3 1.5.4l1.7.3c.6.2 1.1.4 1.5.8.4.5.7 1.1.6 1.7 0 .9-.4 1.7-1.2 2.2-.9.8-2 1-3.1 1h0zm17.6-.7c0 .2-.1.3-.2.4-.5.2-.9.2-1.4.2-1 .1-1.9-.3-2.5-1.1-.9.7-2.1 1.2-3.2 1.1-1.1.1-2.2-.3-2.9-1.2-.7-.8-1.2-1.9-1.1-3.1v-5c0-.2.1-.3.3-.3h2.1c.2 0 .3.2.3.3v4.6c0 .6.2 1.2.6 1.6.3.4.9.6 1.4.6.6 0 1.1-.2 1.5-.6s.6-.9.6-1.5V15c0-.2.1-.3.3-.3h2.2c.2 0 .3.2.3.3v6c0 .5.2.7.7.7.2 0 .4 0 .6-.1s.3.1.4.2v.1 1.8h0zm20 0c.1.2-.1.3-.2.4h-.1c-.5.2-.9.2-1.4.2-.7 0-1.5-.2-2.1-.6-.5-.4-.8-1-.8-1.7v-3c0-.6-.2-1.2-.5-1.6s-.9-.6-1.4-.6-.9.2-1.2.6-.5.9-.5 1.5v4.7c0 .2-.1.3-.3.3h-2.2c-.2 0-.3-.1-.3-.2v-.1V19c0-.6-.2-1.1-.5-1.6-.3-.4-.7-.6-1.2-.6s-1 .2-1.4.6c-.3.4-.6.9-.5 1.5v4.7c0 .2-.1.3-.2.3h-.1-2.1c-.2 0-.3-.2-.3-.3v-6c.1-.3-.2-.7-.6-.7h-.2-.4c-.2 0-.4-.1-.4-.3v-1.5c0-.2.1-.3.2-.4.4-.2.9-.2 1.3-.2.9-.1 1.7.4 2.2 1.2.8-.8 2-1.3 3.2-1.2 1.2-.1 2.2.4 3 1.3.8-.9 2.1-1.4 3.3-1.3a3.54 3.54 0 0 1 3 1.2c.7.8 1.2 1.9 1.1 3.1v2.4c0 .5.2.7.6.7.2 0 .4 0 .6-.1.2 0 .4.1.4.3-.2.1 0 1.6 0 1.6zM.5 13.2C2.8 3.9 12.1-1.8 21.4.5 27.6 2.1 32.5 6.9 34 13.2h-1.5c-2.6 0-5.1.7-7.1 2.2-.1.1-.2.2-.4.2h-.2c-.2-.1-.2-.2-.4-.2a12.84 12.84 0 0 0-14.3 0c-.1.1-.2.2-.4.2h-.3c-.2-.1-.2-.2-.4-.2-2.1-1.5-4.6-2.2-7.1-2.2H.5zm29.2 8c.7-.6 1.7-.9 2.7-.9h2v-4.1h-2c-1.7 0-3.4.5-4.8 1.6a4.5 4.5 0 0 1-5.4 0c-2.9-2.1-6.8-2.1-9.8 0a4.5 4.5 0 0 1-5.4 0c-1.4-1-3.2-1.6-4.9-1.6H0v4.1h2c1 0 1.9.3 2.7.9 2.9 2.1 6.8 2.1 9.7 0 .7-.6 1.7-.9 2.7-.9s1.9.2 2.7.9c3.1 2 7 2 9.9 0zm0 7.2c.7-.6 1.7-.9 2.7-.9h2v-4.1h-2c-1.7 0-3.4.5-4.8 1.6a4.5 4.5 0 0 1-5.4 0c-2.9-2.1-6.8-2.1-9.8 0A4.5 4.5 0 0 1 7 25c-1.4-1-3.2-1.6-4.9-1.6H0v4.1h2c1 0 1.9.3 2.7.9 2.9 2.1 6.8 2.1 9.7 0 .7-.6 1.7-.9 2.7-.9s1.9.2 2.7.9c3.1 2.1 7 2.1 9.9 0z"
      fill="#00142d"
   />
</svg>
